<?xml version="1.0" standalone="no"?>
<!DOCTYPE svg PUBLIC "-//W3C//DTD SVG 20010904//EN"
 "http://www.w3.org/TR/2001/REC-SVG-20010904/DTD/svg10.dtd">
<svg version="1.0" xmlns="http://www.w3.org/2000/svg"
 width="64.000000pt" height="64.000000pt" viewBox="0 0 64.000000 64.000000"
 preserveAspectRatio="xMidYMid meet">

<g transform="translate(0.000000,64.000000) scale(0.100000,-0.100000)"
fill="#000000" stroke="none">
<path d="M140 580 c0 -30 -1 -30 -54 -30 -88 0 -86 5 -86 -260 0 -194 2 -231
16 -244 13 -14 55 -16 304 -16 249 0 291 2 304 16 14 13 16 50 16 244 0 265 2
260 -86 260 -53 0 -54 0 -54 30 0 23 -4 30 -20 30 -16 0 -20 -7 -20 -30 l0
-30 -60 0 -60 0 0 30 c0 23 -4 30 -20 30 -16 0 -20 -7 -20 -30 l0 -30 -60 0
-60 0 0 30 c0 23 -4 30 -20 30 -16 0 -20 -7 -20 -30z m0 -90 c0 -23 4 -30 20
-30 16 0 20 7 20 30 l0 30 60 0 60 0 0 -30 c0 -23 4 -30 20 -30 16 0 20 7 20
30 l0 30 60 0 60 0 0 -30 c0 -23 4 -30 20 -30 16 0 20 7 20 31 0 30 1 30 48
27 l47 -3 3 -52 3 -53 -280 0 -281 0 0 48 c0 27 3 52 7 55 3 4 26 7 50 7 41 0
43 -1 43 -30z m458 -267 l-3 -158 -275 0 -275 0 -3 158 -3 157 281 0 281 0 -3
-157z"/>
<path d="M90 305 c0 -10 10 -15 30 -15 20 0 30 5 30 15 0 10 -10 15 -30 15
-20 0 -30 -5 -30 -15z"/>
<path d="M190 305 c0 -10 10 -15 30 -15 20 0 30 5 30 15 0 10 -10 15 -30 15
-20 0 -30 -5 -30 -15z"/>
<path d="M290 305 c0 -10 10 -15 30 -15 20 0 30 5 30 15 0 10 -10 15 -30 15
-20 0 -30 -5 -30 -15z"/>
<path d="M390 305 c0 -10 10 -15 30 -15 20 0 30 5 30 15 0 10 -10 15 -30 15
-20 0 -30 -5 -30 -15z"/>
<path d="M490 305 c0 -10 10 -15 30 -15 20 0 30 5 30 15 0 10 -10 15 -30 15
-20 0 -30 -5 -30 -15z"/>
<path d="M90 225 c0 -10 10 -15 30 -15 20 0 30 5 30 15 0 10 -10 15 -30 15
-20 0 -30 -5 -30 -15z"/>
<path d="M190 225 c0 -10 10 -15 30 -15 20 0 30 5 30 15 0 10 -10 15 -30 15
-20 0 -30 -5 -30 -15z"/>
<path d="M290 225 c0 -10 10 -15 30 -15 20 0 30 5 30 15 0 10 -10 15 -30 15
-20 0 -30 -5 -30 -15z"/>
<path d="M390 225 c0 -10 10 -15 30 -15 20 0 30 5 30 15 0 10 -10 15 -30 15
-20 0 -30 -5 -30 -15z"/>
<path d="M490 225 c0 -10 10 -15 30 -15 20 0 30 5 30 15 0 10 -10 15 -30 15
-20 0 -30 -5 -30 -15z"/>
<path d="M90 145 c0 -10 10 -15 30 -15 20 0 30 5 30 15 0 10 -10 15 -30 15
-20 0 -30 -5 -30 -15z"/>
<path d="M190 145 c0 -10 10 -15 30 -15 20 0 30 5 30 15 0 10 -10 15 -30 15
-20 0 -30 -5 -30 -15z"/>
<path d="M290 145 c0 -10 10 -15 30 -15 20 0 30 5 30 15 0 10 -10 15 -30 15
-20 0 -30 -5 -30 -15z"/>
<path d="M390 145 c0 -10 10 -15 30 -15 20 0 30 5 30 15 0 10 -10 15 -30 15
-20 0 -30 -5 -30 -15z"/>
<path d="M490 145 c0 -10 10 -15 30 -15 20 0 30 5 30 15 0 10 -10 15 -30 15
-20 0 -30 -5 -30 -15z"/>
</g>
</svg>
