<?xml version="1.0" standalone="no"?>
<!DOCTYPE svg PUBLIC "-//W3C//DTD SVG 20010904//EN"
 "http://www.w3.org/TR/2001/REC-SVG-20010904/DTD/svg10.dtd">
<svg version="1.0" xmlns="http://www.w3.org/2000/svg"
 width="64.000000pt" height="64.000000pt" viewBox="0 0 64.000000 64.000000"
 preserveAspectRatio="xMidYMid meet">

<g transform="translate(0.000000,64.000000) scale(0.100000,-0.100000)"
fill="#000000" stroke="none">
<path d="M223 622 c-109 -39 -178 -112 -210 -221 -29 -102 4 -228 82 -306 122
-121 328 -121 450 0 91 92 118 241 64 356 -69 146 -241 223 -386 171z m-93
-259 l1 -58 20 28 c11 15 30 27 41 27 19 0 19 -1 -2 -30 l-22 -31 26 -39 26
-40 -22 0 c-14 0 -32 13 -45 33 l-23 32 0 -33 c0 -25 -4 -32 -20 -32 -19 0
-20 7 -20 100 0 93 1 100 20 100 18 0 20 -7 20 -57z m420 -43 c0 -93 -1 -100
-20 -100 -19 0 -20 7 -20 100 0 93 1 100 20 100 19 0 20 -7 20 -100z m-216 18
c15 -24 0 -34 -29 -18 -32 17 -48 4 -43 -36 2 -21 9 -30 26 -32 12 -2 22 1 22
7 0 6 7 11 15 11 18 0 20 -21 3 -38 -17 -17 -73 -15 -89 4 -21 26 -17 93 6
110 25 19 75 14 89 -8z m134 10 c5 -7 12 -39 14 -70 4 -51 2 -58 -14 -58 -10
0 -18 5 -18 11 0 8 -4 8 -14 -1 -20 -16 -56 -9 -70 13 -16 25 4 51 43 55 19 2
31 9 31 18 0 12 -8 13 -35 8 -36 -6 -44 3 -23 24 16 16 73 15 86 0z"/>
<path d="M407 273 c-14 -13 -6 -24 15 -21 27 4 36 28 11 28 -11 0 -23 -3 -26
-7z"/>
</g>
</svg>
