<?xml version="1.0" standalone="no"?>
<!DOCTYPE svg PUBLIC "-//W3C//DTD SVG 20010904//EN"
 "http://www.w3.org/TR/2001/REC-SVG-20010904/DTD/svg10.dtd">
<svg version="1.0" xmlns="http://www.w3.org/2000/svg"
 width="64.000000pt" height="64.000000pt" viewBox="0 0 64.000000 64.000000"
 preserveAspectRatio="xMidYMid meet">

<g transform="translate(0.000000,64.000000) scale(0.100000,-0.100000)"
fill="#000000" stroke="none">
<path d="M285 622 c-41 -25 -53 -42 -80 -109 -25 -60 -32 -58 -37 12 l-3 40
-34 -35 c-54 -57 -84 -132 -89 -227 -4 -74 -2 -88 22 -137 34 -69 88 -118 160
-145 104 -39 202 -20 284 54 71 64 96 126 90 230 -5 84 -19 122 -70 187 -23
30 -125 108 -141 108 -2 0 -7 -22 -11 -50 -7 -56 -21 -64 -37 -23 -10 27 -9
41 6 91 9 28 -17 30 -60 4z m30 -32 c-8 -38 11 -97 36 -110 21 -12 31 3 44 63
5 24 8 26 27 16 45 -24 109 -94 134 -146 83 -177 -27 -377 -216 -391 -109 -8
-224 64 -267 166 -34 82 -8 234 52 307 l25 30 0 -27 c0 -30 34 -73 50 -63 6 4
10 16 10 29 0 36 50 125 78 141 36 19 35 19 27 -15z"/>
<path d="M130 400 c-22 -14 -22 -236 0 -250 16 -11 358 -14 384 -4 24 9 24
249 0 258 -25 10 -74 7 -74 -4 0 -5 15 -10 34 -10 22 0 36 -6 40 -16 8 -20 8
-178 0 -198 -5 -14 -31 -16 -189 -16 -158 0 -184 2 -189 16 -8 20 -8 178 0
198 5 14 27 16 140 16 83 0 134 4 134 10 0 13 -260 13 -280 0z"/>
<path d="M220 280 c0 -27 5 -50 10 -50 6 0 10 5 10 12 0 6 9 3 20 -7 21 -19
27 -11 10 15 -5 9 -5 19 2 27 13 16 -4 17 -20 1 -9 -9 -12 -5 -12 20 0 18 -4
32 -10 32 -5 0 -10 -22 -10 -50z"/>
<path d="M420 280 c0 -27 5 -50 10 -50 6 0 10 23 10 50 0 28 -4 50 -10 50 -5
0 -10 -22 -10 -50z"/>
<path d="M297 283 c-4 -3 -7 -17 -7 -30 0 -27 26 -41 43 -24 8 8 7 11 -6 11
-9 0 -17 7 -17 15 0 8 7 15 15 15 8 0 15 5 15 10 0 11 -33 14 -43 3z"/>
<path d="M354 278 c-5 -8 -2 -9 9 -5 9 3 19 2 22 -3 4 -6 -3 -10 -15 -10 -30
0 -22 -35 8 -36 28 -2 37 17 22 45 -12 23 -35 28 -46 9z"/>
</g>
</svg>
