<?xml version="1.0" standalone="no"?>
<!DOCTYPE svg PUBLIC "-//W3C//DTD SVG 20010904//EN"
 "http://www.w3.org/TR/2001/REC-SVG-20010904/DTD/svg10.dtd">
<svg version="1.0" xmlns="http://www.w3.org/2000/svg"
 width="64.000000pt" height="64.000000pt" viewBox="0 0 64.000000 64.000000"
 preserveAspectRatio="xMidYMid meet">

<g transform="translate(0.000000,64.000000) scale(0.100000,-0.100000)"
fill="#000000" stroke="none">
<path d="M223 622 c-109 -39 -178 -112 -210 -221 -29 -102 4 -228 82 -306 122
-121 328 -121 450 0 91 92 118 241 64 356 -69 146 -241 223 -386 171z m174
-16 c149 -40 246 -197 213 -344 -36 -162 -192 -265 -350 -232 -160 34 -264
192 -230 350 22 105 108 198 208 225 62 17 96 18 159 1z"/>
<path d="M258 523 c-32 -8 -20 -26 13 -19 17 3 49 6 71 6 24 0 37 4 33 10 -6
10 -84 12 -117 3z"/>
<path d="M180 426 c0 -36 5 -58 16 -67 12 -10 15 -32 13 -114 -3 -108 2 -125
31 -125 29 0 34 17 31 125 -2 82 1 104 13 114 18 15 23 121 6 121 -5 0 -10
-22 -10 -49 0 -31 -5 -53 -15 -61 -12 -10 -15 -37 -15 -121 0 -66 -4 -109 -10
-109 -6 0 -10 43 -10 109 0 84 -3 111 -15 121 -10 8 -15 30 -15 61 0 27 -4 49
-10 49 -5 0 -10 -24 -10 -54z"/>
<path d="M217 473 c-11 -10 -8 -91 3 -98 6 -4 10 15 10 49 0 57 -1 61 -13 49z"/>
<path d="M250 425 c0 -35 4 -54 10 -50 6 3 10 26 10 50 0 24 -4 47 -10 50 -6
4 -10 -15 -10 -50z"/>
<path d="M367 463 c-25 -29 -32 -89 -12 -119 13 -20 16 -44 13 -112 -3 -93 3
-112 32 -112 29 0 35 19 32 112 -3 68 0 92 13 112 30 45 -1 136 -45 136 -9 0
-24 -8 -33 -17z m51 -16 c21 -25 25 -66 8 -92 -12 -18 -16 -49 -16 -120 0 -57
-4 -95 -10 -95 -6 0 -10 38 -10 95 0 71 -4 102 -16 120 -21 33 -3 105 26 105
4 0 12 -6 18 -13z"/>
<path d="M470 454 c0 -6 9 -27 20 -49 33 -66 24 -145 -26 -213 -13 -17 -14
-22 -3 -22 8 0 25 17 38 38 44 66 38 194 -11 238 -10 10 -18 13 -18 8z"/>
<path d="M134 422 c-39 -58 -29 -170 21 -236 27 -35 35 -11 8 27 -37 52 -43
129 -14 185 24 47 12 66 -15 24z"/>
<path d="M290 120 c0 -5 14 -10 30 -10 17 0 30 5 30 10 0 6 -13 10 -30 10 -16
0 -30 -4 -30 -10z"/>
</g>
</svg>
