<?xml version="1.0" standalone="no"?>
<!DOCTYPE svg PUBLIC "-//W3C//DTD SVG 20010904//EN"
 "http://www.w3.org/TR/2001/REC-SVG-20010904/DTD/svg10.dtd">
<svg version="1.0" xmlns="http://www.w3.org/2000/svg"
 width="64.000000pt" height="64.000000pt" viewBox="0 0 64.000000 64.000000"
 preserveAspectRatio="xMidYMid meet">

<g transform="translate(0.000000,64.000000) scale(0.100000,-0.100000)"
fill="#000000" stroke="none">
<path d="M270 540 c-11 -11 -20 -28 -20 -38 0 -11 -17 -25 -48 -39 -26 -12
-65 -39 -86 -60 -42 -41 -86 -124 -86 -161 0 -12 -7 -25 -15 -28 -32 -13 -7
-88 39 -118 36 -23 481 -24 526 -1 49 25 79 106 45 119 -8 3 -15 16 -15 28 0
71 -107 202 -185 228 -24 8 -35 18 -35 31 0 29 -36 59 -70 59 -17 0 -39 -9
-50 -20z m68 -22 c19 -19 14 -28 -18 -28 -16 0 -30 4 -30 8 0 9 21 32 30 32 3
0 11 -5 18 -12z m87 -92 c78 -36 145 -124 145 -191 l0 -25 -250 0 -250 0 0 25
c0 67 67 155 145 191 67 32 143 32 210 0z m175 -254 c0 -5 -12 -19 -26 -33
-25 -24 -30 -24 -227 -27 -111 -2 -217 -1 -235 3 -30 6 -72 39 -72 57 0 4 126
8 280 8 154 0 280 -4 280 -8z"/>
</g>
</svg>
