<?xml version="1.0" standalone="no"?>
<!DOCTYPE svg PUBLIC "-//W3C//DTD SVG 20010904//EN"
 "http://www.w3.org/TR/2001/REC-SVG-20010904/DTD/svg10.dtd">
<svg version="1.0" xmlns="http://www.w3.org/2000/svg"
 width="64.000000pt" height="64.000000pt" viewBox="0 0 64.000000 64.000000"
 preserveAspectRatio="xMidYMid meet">

<g transform="translate(0.000000,64.000000) scale(0.100000,-0.100000)"
fill="#000000" stroke="none">
<path d="M329 619 c-62 -36 -97 -107 -91 -181 1 -10 -3 -18 -9 -18 -14 0 -39
63 -39 100 0 24 -4 31 -17 28 -40 -8 -92 -154 -78 -224 l6 -34 229 0 230 0 0
58 c0 74 -37 152 -88 187 -19 13 -39 22 -44 19 -4 -3 -8 -22 -8 -42 0 -20 -5
-44 -10 -52 -20 -31 -31 11 -26 98 6 92 3 94 -55 61z"/>
<path d="M12 238 c-16 -16 -16 -210 0 -226 17 -17 599 -17 616 0 16 16 16 210
0 226 -17 17 -599 17 -616 0z m98 -60 l0 -21 25 23 c17 16 29 20 35 14 7 -7 2
-18 -15 -34 -31 -29 -31 -37 0 -62 26 -20 34 -48 13 -48 -6 0 -22 10 -35 22
l-23 21 0 -21 c0 -13 -6 -22 -15 -22 -12 0 -15 15 -15 75 0 60 3 75 15 75 9 0
15 -9 15 -22z m198 0 c3 -15 -2 -17 -27 -12 -37 8 -61 -9 -61 -41 0 -35 26
-51 61 -38 33 13 48 1 29 -22 -18 -22 -76 -19 -100 5 -27 27 -27 83 1 111 26
26 92 24 97 -3z m123 -25 c27 -63 35 -103 20 -103 -6 0 -14 7 -17 15 -8 20
-54 19 -69 -2 -7 -9 -17 -13 -22 -10 -14 9 37 147 55 147 7 0 22 -21 33 -47z
m87 -15 c2 -46 7 -57 22 -61 33 -9 22 -27 -15 -27 l-35 0 0 76 c0 56 3 75 13
72 7 -3 13 -27 15 -60z"/>
<path d="M390 126 c0 -9 5 -16 10 -16 6 0 10 4 10 9 0 6 -4 13 -10 16 -5 3
-10 -1 -10 -9z"/>
</g>
</svg>
