<?xml version="1.0" standalone="no"?>
<!DOCTYPE svg PUBLIC "-//W3C//DTD SVG 20010904//EN"
 "http://www.w3.org/TR/2001/REC-SVG-20010904/DTD/svg10.dtd">
<svg version="1.0" xmlns="http://www.w3.org/2000/svg"
 width="64.000000pt" height="64.000000pt" viewBox="0 0 64.000000 64.000000"
 preserveAspectRatio="xMidYMid meet">

<g transform="translate(0.000000,64.000000) scale(0.100000,-0.100000)"
fill="#000000" stroke="none">
<path d="M227 596 c-94 -35 -164 -110 -188 -201 -26 -96 13 -231 84 -291 64
-54 106 -69 197 -69 68 0 93 5 126 22 63 34 97 66 129 125 27 47 30 63 30 138
0 75 -3 91 -30 138 -52 95 -130 143 -240 149 -44 2 -84 -2 -108 -11z m203 -27
c171 -77 215 -302 87 -438 -103 -108 -291 -108 -394 0 -101 107 -97 286 8 386
77 73 205 95 299 52z"/>
<path d="M221 505 c-107 -62 -141 -176 -83 -286 22 -43 38 -59 81 -81 148 -77
310 21 311 187 0 154 -176 256 -309 180z m215 -31 c58 -47 76 -87 72 -166 -3
-57 -8 -73 -34 -104 -47 -58 -87 -76 -166 -72 -57 3 -73 8 -104 34 -58 47 -76
87 -72 166 3 57 8 73 34 104 47 58 87 76 166 72 57 -3 73 -8 104 -34z"/>
<path d="M446 297 c-10 -51 -41 -85 -94 -101 -32 -9 -42 -16 -31 -20 21 -9 69
10 101 41 32 31 55 90 40 105 -6 6 -12 -2 -16 -25z"/>
</g>
</svg>
