<?xml version="1.0" standalone="no"?>
<!DOCTYPE svg PUBLIC "-//W3C//DTD SVG 20010904//EN"
 "http://www.w3.org/TR/2001/REC-SVG-20010904/DTD/svg10.dtd">
<svg version="1.0" xmlns="http://www.w3.org/2000/svg"
 width="64.000000pt" height="64.000000pt" viewBox="0 0 64.000000 64.000000"
 preserveAspectRatio="xMidYMid meet">

<g transform="translate(0.000000,64.000000) scale(0.100000,-0.100000)"
fill="#000000" stroke="none">
<path d="M0 546 c0 -86 2 -97 25 -124 25 -30 25 -32 25 -220 0 -183 1 -191 20
-197 45 -14 50 4 50 207 0 185 1 190 23 208 20 17 22 27 22 112 0 112 -19 137
-23 31 -4 -96 -22 -94 -22 2 0 41 -4 75 -9 75 -15 0 -21 -28 -21 -91 0 -33 -4
-59 -10 -59 -6 0 -10 32 -10 75 0 43 -4 75 -10 75 -6 0 -10 -32 -10 -75 0 -43
-4 -75 -10 -75 -6 0 -10 26 -10 59 0 63 -6 91 -21 91 -5 0 -9 -42 -9 -94z
m140 -86 c0 -5 -9 -15 -20 -22 -19 -12 -20 -24 -20 -210 0 -169 -2 -198 -15
-198 -13 0 -15 28 -15 193 0 180 -1 194 -20 210 -32 27 -23 37 35 37 30 0 55
-4 55 -10z"/>
<path d="M602 625 c-12 -9 -34 -37 -49 -63 -26 -43 -28 -58 -32 -166 -3 -108
-1 -121 18 -147 17 -23 21 -43 21 -111 0 -100 6 -125 32 -133 46 -15 48 -3 48
326 0 170 -3 309 -8 309 -4 0 -17 -7 -30 -15z m8 -315 c0 -180 -4 -280 -10
-280 -6 0 -10 41 -10 103 0 91 -2 106 -20 122 -18 16 -20 31 -20 132 0 85 4
122 16 146 17 33 34 57 40 57 2 0 4 -126 4 -280z"/>
<path d="M251 548 c-19 -7 -36 -19 -39 -27 -3 -10 1 -11 19 -5 13 5 56 9 96 9
64 0 76 -3 117 -32 48 -34 71 -31 33 4 -56 52 -159 75 -226 51z"/>
<path d="M269 490 c-128 -38 -168 -197 -74 -292 72 -72 177 -72 248 -1 71 71
71 176 -1 247 -48 49 -110 65 -173 46z m129 -40 c69 -42 94 -139 52 -208 -79
-130 -280 -74 -280 78 0 116 129 190 228 130z"/>
<path d="M241 400 c-30 -31 -44 -90 -21 -90 6 0 10 9 10 21 0 11 14 34 31 51
18 19 27 34 21 40 -6 6 -21 -3 -41 -22z"/>
<path d="M310 420 c0 -5 5 -10 10 -10 6 0 10 5 10 10 0 6 -4 10 -10 10 -5 0
-10 -4 -10 -10z"/>
<path d="M475 170 c-50 -55 -166 -77 -242 -45 -41 17 -58 11 -28 -11 51 -38
151 -42 218 -8 35 18 87 63 87 76 0 14 -16 9 -35 -12z"/>
<path d="M150 160 c0 -5 5 -10 10 -10 6 0 10 5 10 10 0 6 -4 10 -10 10 -5 0
-10 -4 -10 -10z"/>
</g>
</svg>
