<?xml version="1.0" standalone="no"?>
<!DOCTYPE svg PUBLIC "-//W3C//DTD SVG 20010904//EN"
 "http://www.w3.org/TR/2001/REC-SVG-20010904/DTD/svg10.dtd">
<svg version="1.0" xmlns="http://www.w3.org/2000/svg"
 width="64.000000pt" height="64.000000pt" viewBox="0 0 64.000000 64.000000"
 preserveAspectRatio="xMidYMid meet">

<g transform="translate(0.000000,64.000000) scale(0.100000,-0.100000)"
fill="#000000" stroke="none">
<path d="M366 624 c-9 -8 -16 -22 -16 -30 0 -8 -4 -12 -10 -9 -16 10 -50 -14
-50 -35 0 -15 -7 -20 -25 -20 -34 0 -45 -31 -45 -124 0 -64 -3 -75 -25 -96
-14 -13 -25 -30 -25 -39 0 -10 11 -4 33 17 32 31 35 32 127 32 52 0 100 4 107
8 6 4 16 20 22 35 6 15 17 27 26 27 9 0 18 12 21 30 4 16 13 35 20 41 16 13
18 41 4 55 -6 6 -6 21 2 42 22 56 -22 99 -72 70 -25 -14 -31 -14 -41 -2 -15
18 -34 18 -53 -2z m89 -24 c44 41 83 0 47 -50 l-21 -28 21 -14 c26 -17 16 -38
-18 -38 -28 0 -31 -8 -7 -25 22 -16 8 -35 -27 -35 -34 0 -50 -19 -26 -32 14
-8 15 -13 5 -24 -14 -17 -174 -21 -164 -4 3 6 24 10 46 10 21 0 39 5 39 10 0
6 -9 10 -20 10 -46 0 -9 39 48 51 33 6 35 8 14 14 -22 7 -22 9 -6 26 9 11 30
19 46 19 28 0 39 15 16 23 -9 3 -8 10 6 26 22 25 14 40 -10 20 -10 -8 -25 -13
-36 -11 -13 2 -18 -3 -18 -21 0 -13 -9 -32 -20 -42 -18 -16 -20 -16 -20 -2 0
10 -4 17 -10 17 -5 0 -10 -13 -10 -28 0 -16 -9 -37 -20 -47 -19 -18 -20 -17
-20 3 0 12 -4 22 -10 22 -5 0 -10 -15 -10 -34 0 -19 -4 -38 -10 -41 -6 -4 -10
20 -10 64 0 57 3 71 15 71 9 0 18 -7 21 -15 11 -28 24 -15 24 25 0 44 22 55
46 23 12 -16 13 -14 14 18 0 49 20 67 43 38 l18 -22 24 23z"/>
<path d="M235 620 c-3 -5 1 -10 9 -10 9 0 16 5 16 10 0 6 -4 10 -9 10 -6 0
-13 -4 -16 -10z"/>
<path d="M62 604 c-30 -21 -28 -45 9 -98 42 -63 69 -62 109 2 16 26 30 52 30
58 0 22 -36 44 -71 42 -20 -1 -40 2 -46 5 -5 3 -19 -1 -31 -9z m116 -35 c5
-26 -32 -84 -54 -84 -10 0 -23 10 -29 21 -6 12 -17 29 -24 38 -25 29 -7 45 51
43 39 -2 54 -6 56 -18z"/>
<path d="M580 561 c0 -6 5 -13 11 -17 8 -4 8 -9 0 -17 -16 -16 -13 -37 4 -31
20 8 29 42 15 59 -14 17 -30 20 -30 6z"/>
<path d="M0 510 c0 -5 5 -10 10 -10 6 0 10 5 10 10 0 6 -4 10 -10 10 -5 0 -10
-4 -10 -10z"/>
<path d="M20 470 c0 -5 5 -10 10 -10 6 0 10 5 10 10 0 6 -4 10 -10 10 -5 0
-10 -4 -10 -10z"/>
<path d="M41 398 c-47 -34 -52 -66 -14 -83 13 -5 23 -18 23 -27 0 -14 8 -18
35 -18 27 0 35 4 35 18 0 9 10 22 23 27 46 21 27 63 -49 108 -6 3 -30 -8 -53
-25z m65 -12 c3 -8 15 -16 26 -19 11 -3 18 -12 16 -19 -6 -18 -120 -18 -125
-1 -3 7 4 16 14 20 10 3 22 12 26 20 11 17 36 17 43 -1z m-6 -86 c0 -5 -7 -10
-16 -10 -8 0 -12 5 -9 10 3 6 10 10 16 10 5 0 9 -4 9 -10z"/>
<path d="M511 374 c-12 -15 -21 -34 -21 -44 0 -34 39 -70 75 -70 38 0 75 37
75 74 0 62 -90 89 -129 40z m93 -10 c21 -21 20 -47 -3 -68 -26 -24 -62 -17
-80 16 -14 24 -14 28 3 47 23 25 58 27 80 5z"/>
<path d="M540 345 c-10 -12 -10 -18 0 -30 7 -8 18 -15 25 -15 7 0 18 7 25 15
10 12 10 18 0 30 -7 8 -18 15 -25 15 -7 0 -18 -7 -25 -15z"/>
<path d="M390 285 c-16 -19 -5 -32 13 -17 10 8 17 8 24 1 6 -6 17 -9 23 -7 9
3 8 9 -4 21 -21 21 -40 22 -56 2z"/>
<path d="M300 280 c0 -5 5 -10 10 -10 6 0 10 5 10 10 0 6 -4 10 -10 10 -5 0
-10 -4 -10 -10z"/>
<path d="M0 214 c0 -76 80 -179 156 -202 53 -16 275 -16 328 0 54 16 128 90
144 144 24 80 50 74 -308 74 -289 0 -320 -2 -320 -16z m614 -31 c-17 -71 -76
-134 -141 -152 -49 -14 -257 -14 -306 0 -65 18 -124 81 -141 152 l-6 27 300 0
300 0 -6 -27z"/>
</g>
</svg>
