<?xml version="1.0" standalone="no"?>
<!DOCTYPE svg PUBLIC "-//W3C//DTD SVG 20010904//EN"
 "http://www.w3.org/TR/2001/REC-SVG-20010904/DTD/svg10.dtd">
<svg version="1.0" xmlns="http://www.w3.org/2000/svg"
 width="64.000000pt" height="64.000000pt" viewBox="0 0 64.000000 64.000000"
 preserveAspectRatio="xMidYMid meet">

<g transform="translate(0.000000,64.000000) scale(0.100000,-0.100000)"
fill="#000000" stroke="none">
<path d="M290 631 c0 -5 5 -11 12 -13 26 -9 -2 -35 -44 -42 -51 -8 -122 -54
-161 -104 -25 -33 -37 -64 -52 -134 -4 -19 -12 -28 -25 -28 -13 0 -20 -7 -20
-17 1 -40 51 -73 111 -73 18 0 28 -4 24 -10 -3 -5 -35 -10 -71 -10 -36 0 -64
-4 -64 -10 0 -5 23 -10 50 -10 l50 0 0 -57 c0 -32 3 -68 6 -80 6 -22 4 -23
-50 -23 -31 0 -56 -4 -56 -10 0 -6 27 -10 61 -10 52 0 62 3 66 20 5 19 14 20
129 20 67 0 135 5 150 10 26 10 135 97 162 129 6 8 10 23 6 33 -3 12 0 18 10
18 20 0 56 39 56 62 0 11 -7 18 -20 18 -13 0 -21 9 -25 28 -15 70 -27 101 -52
134 -39 50 -110 96 -161 104 -42 7 -70 33 -44 42 23 7 11 22 -18 22 -16 0 -30
-4 -30 -9z m135 -90 c76 -34 128 -102 144 -186 l8 -45 -257 0 -257 0 8 45 c16
84 68 152 144 186 54 25 156 25 210 0z m183 -268 c-3 -17 -25 -18 -288 -18
-263 0 -285 1 -288 18 -3 16 16 17 288 17 272 0 291 -1 288 -17z m-260 -65
c-3 -7 -27 -15 -54 -18 -44 -5 -49 -7 -49 -30 0 -24 2 -25 78 -28 l77 -3 64
46 c69 49 86 54 86 28 0 -17 -94 -102 -144 -130 -13 -8 -67 -12 -148 -13
l-128 0 0 57 c0 44 5 62 22 80 19 21 30 23 111 23 66 0 88 -3 85 -12z m132 7
c0 -2 -20 -18 -44 -35 -39 -26 -53 -30 -110 -30 -76 0 -90 17 -18 22 38 2 49
7 57 26 8 19 17 22 62 22 29 0 53 -2 53 -5z"/>
<path d="M225 521 c-38 -17 -77 -51 -59 -51 5 0 31 11 58 25 27 14 60 25 73
25 13 0 23 5 23 10 0 16 -51 11 -95 -9z"/>
<path d="M135 449 c-4 -6 -5 -13 -2 -16 7 -7 27 6 27 18 0 12 -17 12 -25 -2z"/>
<path d="M37 98 c-21 -11 -22 -31 -3 -47 20 -16 46 -3 46 24 0 27 -19 37 -43
23z"/>
</g>
</svg>
