<?xml version="1.0" standalone="no"?>
<!DOCTYPE svg PUBLIC "-//W3C//DTD SVG 20010904//EN"
 "http://www.w3.org/TR/2001/REC-SVG-20010904/DTD/svg10.dtd">
<svg version="1.0" xmlns="http://www.w3.org/2000/svg"
 width="64.000000pt" height="64.000000pt" viewBox="0 0 64.000000 64.000000"
 preserveAspectRatio="xMidYMid meet">

<g transform="translate(0.000000,64.000000) scale(0.100000,-0.100000)"
fill="#000000" stroke="none">
<path d="M29 533 c-9 -23 -7 -36 12 -71 19 -36 20 -46 10 -69 -12 -27 -9 -39
8 -29 22 14 23 66 1 102 -19 29 -21 40 -11 60 14 31 14 34 1 34 -6 0 -15 -12
-21 -27z"/>
<path d="M147 553 c-11 -10 -8 -51 4 -59 6 -3 8 -17 5 -30 -4 -13 -2 -24 4
-24 16 0 23 49 10 65 -7 8 -10 24 -7 35 5 20 -3 26 -16 13z"/>
<path d="M477 541 c3 -12 0 -28 -7 -36 -14 -17 -6 -65 11 -65 6 0 8 9 4 20 -4
12 -1 27 5 35 14 17 10 57 -7 62 -7 3 -9 -3 -6 -16z"/>
<path d="M580 555 c0 -2 5 -15 11 -29 10 -20 8 -31 -11 -60 -22 -36 -21 -88 1
-102 17 -10 20 2 8 29 -10 23 -9 33 10 69 19 35 21 48 12 71 -9 22 -31 39 -31
22z"/>
<path d="M277 494 c-12 -12 -8 -36 9 -55 14 -16 12 -18 -40 -33 -30 -9 -58
-21 -61 -26 -8 -13 1 -12 59 5 62 19 90 19 155 -1 93 -27 191 -144 191 -226
l0 -28 -270 0 -270 0 0 28 c1 40 36 112 77 154 47 48 35 63 -13 17 -43 -41
-71 -93 -80 -149 -4 -23 -13 -44 -20 -47 -21 -8 -17 -30 8 -47 33 -24 563 -24
596 0 25 17 29 39 8 47 -7 3 -16 24 -20 47 -18 111 -117 208 -240 235 -27 6
-27 7 -11 25 28 31 16 55 -30 58 -23 2 -44 0 -48 -4z m73 -23 c0 -5 -7 -14
-15 -21 -12 -10 -18 -10 -30 0 -23 19 -18 30 15 30 17 0 30 -4 30 -9z m250
-371 c-9 -6 -126 -10 -280 -10 -154 0 -271 4 -280 10 -10 6 86 10 280 10 194
0 290 -4 280 -10z"/>
</g>
</svg>
